<svg width="339" height="370" viewBox="0 0 339 370" fill="none" xmlns="http://www.w3.org/2000/svg">
<path fill-rule="evenodd" clip-rule="evenodd" d="M161.633 10.8629C188.622 23.5739 200.577 59.8757 221.315 84.1227C236.491 101.865 251.737 117.635 267.496 134.635C290.587 159.544 326.805 172.139 335.878 207.703C344.807 242.703 333.81 285.456 312.745 312.003C291.893 338.281 257.34 337.552 227.558 344.211C205.579 349.125 183.778 342.087 161.633 345.788C134.855 350.264 110.109 377.147 84.1313 368.183C58.0714 359.19 33.3287 331.617 28.2553 299.763C23.006 266.805 63.1578 240.803 58.5717 207.703C52.4689 163.657 -1.8233 140.765 0.0472169 96.1742C1.70189 56.7288 36.5875 27.3097 66.8083 11.3543C96.2239 -4.17606 131.715 -3.22789 161.633 10.8629Z" fill="#38DE91"/>
</svg>
