<svg width="24" height="24" viewBox="0 0 24 24" fill="none" xmlns="http://www.w3.org/2000/svg">
<mask id="mask0_79_2308" style="mask-type:alpha" maskUnits="userSpaceOnUse" x="0" y="0" width="24" height="24">
<rect width="24" height="24" fill="#D9D9D9"/>
</mask>
<g mask="url(#mask0_79_2308)">
<path d="M18.175 18H15C14.7167 18 14.4792 17.9042 14.2875 17.7125C14.0958 17.5208 14 17.2833 14 17C14 16.7167 14.0958 16.4792 14.2875 16.2875C14.4792 16.0958 14.7167 16 15 16H18.175L17.3 15.125C17.1167 14.925 17.0208 14.6875 17.0125 14.4125C17.0042 14.1375 17.1 13.9 17.3 13.7C17.5 13.5 17.7333 13.4 18 13.4C18.2667 13.4 18.5 13.5 18.7 13.7L21.3 16.3C21.5 16.5 21.6 16.7333 21.6 17C21.6 17.2667 21.5 17.5 21.3 17.7L18.7 20.3C18.5 20.5 18.2667 20.6 18 20.6C17.7333 20.6 17.5 20.5 17.3 20.3C17.1 20.1 17.0042 19.8625 17.0125 19.5875C17.0208 19.3125 17.1167 19.075 17.3 18.875L18.175 18ZM8 10H14C14.2833 10 14.5208 9.90417 14.7125 9.7125C14.9042 9.52083 15 9.28333 15 9C15 8.71667 14.9042 8.47917 14.7125 8.2875C14.5208 8.09583 14.2833 8 14 8H8C7.71667 8 7.47917 8.09583 7.2875 8.2875C7.09583 8.47917 7 8.71667 7 9C7 9.28333 7.09583 9.52083 7.2875 9.7125C7.47917 9.90417 7.71667 10 8 10ZM8 14H11C11.2833 14 11.5208 13.9042 11.7125 13.7125C11.9042 13.5208 12 13.2833 12 13C12 12.7167 11.9042 12.4792 11.7125 12.2875C11.5208 12.0958 11.2833 12 11 12H8C7.71667 12 7.47917 12.0958 7.2875 12.2875C7.09583 12.4792 7 12.7167 7 13C7 13.2833 7.09583 13.5208 7.2875 13.7125C7.47917 13.9042 7.71667 14 8 14ZM6 18L3.85 20.15C3.68333 20.3167 3.5 20.3583 3.3 20.275C3.1 20.1917 3 20.0333 3 19.8V6C3 5.45 3.19583 4.97917 3.5875 4.5875C3.97917 4.19583 4.45 4 5 4H17C17.55 4 18.0208 4.19583 18.4125 4.5875C18.8042 4.97917 19 5.45 19 6V11.075C18.8333 11.0417 18.6667 11.0208 18.5 11.0125C18.3333 11.0042 18.1667 11 18 11C16.3167 11 14.8958 11.5833 13.7375 12.75C12.5792 13.9167 12 15.3333 12 17C12 17.1667 12.0042 17.3333 12.0125 17.5C12.0208 17.6667 12.0417 17.8333 12.075 18H6Z" fill="#38DE91"/>
</g>
</svg>
