<svg width="24" height="24" viewBox="0 0 24 24" fill="none" xmlns="http://www.w3.org/2000/svg">
<mask id="mask0_79_2337" style="mask-type:alpha" maskUnits="userSpaceOnUse" x="0" y="0" width="24" height="25">
<rect y="0.00012207" width="24" height="24" fill="#D9D9D9"/>
</mask>
<g mask="url(#mask0_79_2337)">
<path d="M18.175 18.0001H15C14.7167 18.0001 14.4792 17.9043 14.2875 17.7126C14.0958 17.521 14 17.2835 14 17.0001C14 16.7168 14.0958 16.4793 14.2875 16.2876C14.4792 16.096 14.7167 16.0001 15 16.0001H18.175L17.3 15.1251C17.1167 14.9251 17.0208 14.6876 17.0125 14.4126C17.0042 14.1376 17.1 13.9001 17.3 13.7001C17.5 13.5001 17.7333 13.4001 18 13.4001C18.2667 13.4001 18.5 13.5001 18.7 13.7001L21.3 16.3001C21.5 16.5001 21.6 16.7335 21.6 17.0001C21.6 17.2668 21.5 17.5001 21.3 17.7001L18.7 20.3001C18.5 20.5001 18.2667 20.6001 18 20.6001C17.7333 20.6001 17.5 20.5001 17.3 20.3001C17.1 20.1001 17.0042 19.8626 17.0125 19.5876C17.0208 19.3126 17.1167 19.0751 17.3 18.8751L18.175 18.0001ZM6 18.0001L3.85 20.1501C3.68333 20.3168 3.5 20.3585 3.3 20.2751C3.1 20.1918 3 20.0335 3 19.8001V6.00012C3 5.45012 3.19583 4.97929 3.5875 4.58762C3.97917 4.19596 4.45 4.00012 5 4.00012H17C17.55 4.00012 18.0208 4.19596 18.4125 4.58762C18.8042 4.97929 19 5.45012 19 6.00012V11.0751C18.8333 11.0418 18.6667 11.021 18.5 11.0126C18.3333 11.0043 18.1667 11.0001 18 11.0001C17.8333 11.0001 17.6667 11.0043 17.5 11.0126C17.3333 11.021 17.1667 11.0418 17 11.0751V6.00012H5V16.0001H12.075C12.0417 16.1668 12.0208 16.3335 12.0125 16.5001C12.0042 16.6668 12 16.8335 12 17.0001C12 17.1668 12.0042 17.3335 12.0125 17.5001C12.0208 17.6668 12.0417 17.8335 12.075 18.0001H6ZM8 10.0001H14C14.2833 10.0001 14.5208 9.90429 14.7125 9.71262C14.9042 9.52096 15 9.28346 15 9.00012C15 8.71679 14.9042 8.47929 14.7125 8.28762C14.5208 8.09596 14.2833 8.00012 14 8.00012H8C7.71667 8.00012 7.47917 8.09596 7.2875 8.28762C7.09583 8.47929 7 8.71679 7 9.00012C7 9.28346 7.09583 9.52096 7.2875 9.71262C7.47917 9.90429 7.71667 10.0001 8 10.0001ZM8 14.0001H11C11.2833 14.0001 11.5208 13.9043 11.7125 13.7126C11.9042 13.521 12 13.2835 12 13.0001C12 12.7168 11.9042 12.4793 11.7125 12.2876C11.5208 12.096 11.2833 12.0001 11 12.0001H8C7.71667 12.0001 7.47917 12.096 7.2875 12.2876C7.09583 12.4793 7 12.7168 7 13.0001C7 13.2835 7.09583 13.521 7.2875 13.7126C7.47917 13.9043 7.71667 14.0001 8 14.0001Z" fill="#ADB7C5"/>
</g>
</svg>
