<svg width="24" height="24" viewBox="0 0 24 24" fill="none" xmlns="http://www.w3.org/2000/svg">
<mask id="mask0_79_2334" style="mask-type:alpha" maskUnits="userSpaceOnUse" x="0" y="0" width="24" height="25">
<rect y="0.00012207" width="24" height="24" fill="#D9D9D9"/>
</mask>
<g mask="url(#mask0_79_2334)">
<path d="M6 19.0001H9V13.0001H15V19.0001H18V10.0001L12 5.50012L6 10.0001V19.0001ZM6 21.0001C5.45 21.0001 4.97917 20.8043 4.5875 20.4126C4.19583 20.021 4 19.5501 4 19.0001V10.0001C4 9.68346 4.07083 9.38346 4.2125 9.10012C4.35417 8.81679 4.55 8.58346 4.8 8.40012L10.8 3.90012C10.9833 3.76679 11.175 3.66679 11.375 3.60012C11.575 3.53346 11.7833 3.50012 12 3.50012C12.2167 3.50012 12.425 3.53346 12.625 3.60012C12.825 3.66679 13.0167 3.76679 13.2 3.90012L19.2 8.40012C19.45 8.58346 19.6458 8.81679 19.7875 9.10012C19.9292 9.38346 20 9.68346 20 10.0001V19.0001C20 19.5501 19.8042 20.021 19.4125 20.4126C19.0208 20.8043 18.55 21.0001 18 21.0001H13V15.0001H11V21.0001H6Z" fill="#ADB7C5"/>
</g>
</svg>
