<svg width="24" height="24" viewBox="0 0 24 24" fill="none" xmlns="http://www.w3.org/2000/svg">
<mask id="mask0_79_2328" style="mask-type:alpha" maskUnits="userSpaceOnUse" x="0" y="0" width="24" height="24">
<rect y="6.10352e-05" width="24" height="24" fill="#D9D9D9"/>
</mask>
<g mask="url(#mask0_79_2328)">
<path d="M12 12.0001C10.9 12.0001 9.95833 11.6084 9.175 10.8251C8.39167 10.0417 8 9.10006 8 8.00006C8 6.90006 8.39167 5.95839 9.175 5.17506C9.95833 4.39173 10.9 4.00006 12 4.00006C13.1 4.00006 14.0417 4.39173 14.825 5.17506C15.6083 5.95839 16 6.90006 16 8.00006C16 9.10006 15.6083 10.0417 14.825 10.8251C14.0417 11.6084 13.1 12.0001 12 12.0001ZM18 20.0001H6C5.45 20.0001 4.97917 19.8042 4.5875 19.4126C4.19583 19.0209 4 18.5501 4 18.0001V17.2001C4 16.6334 4.14583 16.1126 4.4375 15.6376C4.72917 15.1626 5.11667 14.8001 5.6 14.5501C6.63333 14.0334 7.68333 13.6459 8.75 13.3876C9.81667 13.1292 10.9 13.0001 12 13.0001C13.1 13.0001 14.1833 13.1292 15.25 13.3876C16.3167 13.6459 17.3667 14.0334 18.4 14.5501C18.8833 14.8001 19.2708 15.1626 19.5625 15.6376C19.8542 16.1126 20 16.6334 20 17.2001V18.0001C20 18.5501 19.8042 19.0209 19.4125 19.4126C19.0208 19.8042 18.55 20.0001 18 20.0001ZM6 18.0001H18V17.2001C18 17.0167 17.9542 16.8501 17.8625 16.7001C17.7708 16.5501 17.65 16.4334 17.5 16.3501C16.6 15.9001 15.6917 15.5626 14.775 15.3376C13.8583 15.1126 12.9333 15.0001 12 15.0001C11.0667 15.0001 10.1417 15.1126 9.225 15.3376C8.30833 15.5626 7.4 15.9001 6.5 16.3501C6.35 16.4334 6.22917 16.5501 6.1375 16.7001C6.04583 16.8501 6 17.0167 6 17.2001V18.0001ZM12 10.0001C12.55 10.0001 13.0208 9.80423 13.4125 9.41256C13.8042 9.02089 14 8.55006 14 8.00006C14 7.45006 13.8042 6.97923 13.4125 6.58756C13.0208 6.19589 12.55 6.00006 12 6.00006C11.45 6.00006 10.9792 6.19589 10.5875 6.58756C10.1958 6.97923 10 7.45006 10 8.00006C10 8.55006 10.1958 9.02089 10.5875 9.41256C10.9792 9.80423 11.45 10.0001 12 10.0001Z" fill="#ADB7C5"/>
</g>
</svg>
