<svg width="24" height="24" viewBox="0 0 24 24" fill="none" xmlns="http://www.w3.org/2000/svg">
<mask id="mask0_79_275" style="mask-type:alpha" maskUnits="userSpaceOnUse" x="0" y="0" width="24" height="24">
<rect width="24" height="24" fill="#D9D9D9"/>
</mask>
<g mask="url(#mask0_79_275)">
<path d="M11.3954 16.3333L6.42319 11.3611C5.988 10.9259 5.88846 10.4236 6.12457 9.85417C6.36068 9.28472 6.78893 9 7.40932 9H17.326C17.9464 9 18.3746 9.28472 18.6107 9.85417C18.8468 10.4236 18.7473 10.9259 18.3121 11.3611L13.3399 16.3333C13.1917 16.4815 13.0389 16.5879 12.8815 16.6528C12.7241 16.7176 12.5528 16.75 12.3677 16.75C12.1825 16.75 12.0112 16.7176 11.8538 16.6528C11.6964 16.5879 11.5436 16.4815 11.3954 16.3333Z" fill="#181922"/>
</g>
</svg>
