<svg width="24" height="24" viewBox="0 0 24 24" fill="none" xmlns="http://www.w3.org/2000/svg">
<mask id="mask0_79_272" style="mask-type:alpha" maskUnits="userSpaceOnUse" x="0" y="0" width="24" height="24">
<rect width="24" height="24" fill="#D9D9D9"/>
</mask>
<g mask="url(#mask0_79_272)">
<path d="M7.40932 15.7778C6.78893 15.7778 6.36068 15.4931 6.12457 14.9236C5.88846 14.3542 5.988 13.8519 6.42319 13.4167L11.4232 8.38892C11.5714 8.24075 11.7241 8.13889 11.8815 8.08333C12.0389 8.02778 12.2102 8 12.3954 8C12.5806 8 12.7519 8.02778 12.9093 8.08333C13.0667 8.13889 13.2195 8.24075 13.3677 8.38892L18.3677 13.4167C18.8028 13.8519 18.9024 14.3542 18.6663 14.9236C18.4302 15.4931 18.0019 15.7778 17.3816 15.7778H7.40932Z" fill="#181922"/>
</g>
</svg>
