<svg width="40" height="40" viewBox="0 0 40 40" fill="none" xmlns="http://www.w3.org/2000/svg">
<mask id="mask0_79_612" style="mask-type:alpha" maskUnits="userSpaceOnUse" x="0" y="0" width="40" height="40">
<rect width="40" height="40" fill="#D9D9D9"/>
</mask>
<g mask="url(#mask0_79_612)">
<path d="M30.101 13.9979C29.8028 13.9979 29.5547 13.8975 29.3567 13.6968C29.1587 13.4962 29.0597 13.2475 29.0597 12.9509V10.6368H26.7562C26.4596 10.6368 26.2109 10.5359 26.0102 10.3341C25.8096 10.1324 25.7092 9.88238 25.7092 9.58413C25.7092 9.28591 25.8096 9.0378 26.0102 8.8398C26.2109 8.6418 26.4596 8.5428 26.7562 8.5428H29.0597V6.23934C29.0597 5.9427 29.1606 5.69405 29.3623 5.49338C29.564 5.29272 29.814 5.19238 30.1123 5.19238C30.4105 5.19238 30.6586 5.29272 30.8566 5.49338C31.0546 5.69405 31.1536 5.9427 31.1536 6.23934V8.5428H33.4571C33.7537 8.5428 34.0024 8.64367 34.2031 8.84542C34.4037 9.04717 34.5041 9.29716 34.5041 9.59538C34.5041 9.89363 34.4037 10.1418 34.2031 10.3398C34.0024 10.5378 33.7537 10.6368 33.4571 10.6368H31.1536V12.9509C31.1536 13.2475 31.0527 13.4962 30.851 13.6968C30.6493 13.8975 30.3993 13.9979 30.101 13.9979ZM12.2499 27.8718H27.254C27.5029 27.8718 27.6896 27.7557 27.8141 27.5235C27.9385 27.2913 27.9263 27.062 27.7775 26.8355L23.7241 21.405C23.5867 21.2341 23.4122 21.1486 23.2006 21.1486C22.9891 21.1486 22.8142 21.2354 22.6759 21.4091L18.3802 26.9637L15.4806 23.2779C15.3431 23.1176 15.1731 23.0375 14.9704 23.0375C14.7678 23.0375 14.5978 23.123 14.4603 23.2939L11.7531 26.8355C11.575 27.062 11.5496 27.2913 11.6769 27.5235C11.8043 27.7557 11.9953 27.8718 12.2499 27.8718ZM8.11949 34.1667C7.40813 34.1667 6.79582 33.91 6.28257 33.3968C5.76932 32.8835 5.5127 32.2712 5.5127 31.5598V8.44026C5.5127 7.7289 5.76932 7.11659 6.28257 6.60334C6.79582 6.09006 7.40813 5.83342 8.11949 5.83342H22.5575C22.8542 5.83342 23.1028 5.93377 23.3035 6.13447C23.5042 6.33513 23.6045 6.58379 23.6045 6.88042V11.4381C23.6045 11.8074 23.7294 12.117 23.9792 12.3668C24.229 12.6166 24.5386 12.7415 24.9079 12.7415H26.9549V14.7992C26.9549 15.1615 27.0798 15.4694 27.3297 15.7227C27.5795 15.976 27.889 16.1026 28.2583 16.1026H32.7989C33.0955 16.1026 33.3442 16.2029 33.5449 16.4036C33.7456 16.6043 33.8459 16.853 33.8459 17.1496V31.5598C33.8459 32.2712 33.5893 32.8835 33.076 33.3968C32.5627 33.91 31.9504 34.1667 31.2391 34.1667H8.11949Z" fill="#181922"/>
</g>
</svg>
