<svg width="16" height="16" viewBox="0 0 16 16" fill="none" xmlns="http://www.w3.org/2000/svg">
<mask id="mask0_116_632" style="mask-type:alpha" maskUnits="userSpaceOnUse" x="0" y="0" width="16" height="16">
<rect width="16" height="16" fill="#D9D9D9"/>
</mask>
<g mask="url(#mask0_116_632)">
<path d="M7.99615 11.6C8.20976 11.6 8.38879 11.5263 8.53324 11.3788C8.67768 11.2313 8.7499 11.0507 8.7499 10.8371C8.7499 10.6235 8.67729 10.4472 8.53207 10.3084C8.38684 10.1695 8.20906 10.1 7.99874 10.1C7.7884 10.1 7.60824 10.1695 7.45824 10.3084C7.30824 10.4472 7.23324 10.6235 7.23324 10.8371C7.23324 11.0507 7.30699 11.2313 7.45449 11.3788C7.60197 11.5263 7.78253 11.6 7.99615 11.6ZM10.0499 6.26669C10.0499 5.72225 9.85824 5.27502 9.4749 4.92502C9.09157 4.57502 8.5999 4.40002 7.9999 4.40002C7.61101 4.40002 7.25546 4.49169 6.93324 4.67502C6.61101 4.85836 6.3499 5.11114 6.1499 5.43336C6.07212 5.55558 6.06379 5.68336 6.1249 5.81669C6.18601 5.95002 6.28836 6.047 6.43195 6.10761C6.55503 6.15811 6.68094 6.16044 6.80969 6.11461C6.93843 6.06877 7.04737 5.98475 7.1365 5.86252C7.24544 5.70975 7.37212 5.59725 7.51657 5.52502C7.66101 5.4528 7.82212 5.41669 7.9999 5.41669C8.29126 5.41669 8.52799 5.49845 8.71009 5.66197C8.89219 5.8255 8.98324 6.03262 8.98324 6.28336C8.98324 6.46114 8.92768 6.63336 8.81657 6.80002C8.70546 6.96669 8.4999 7.19447 8.1999 7.48336C7.92212 7.75002 7.73601 7.96947 7.64157 8.14169C7.54712 8.31391 7.48879 8.5278 7.46657 8.78336C7.45546 8.9278 7.50252 9.0528 7.60775 9.15836C7.71298 9.26391 7.84576 9.31669 8.00612 9.31669C8.14642 9.31669 8.27212 9.26669 8.38324 9.16669C8.49435 9.06669 8.56101 8.93891 8.58324 8.78336C8.60546 8.6278 8.65268 8.49169 8.7249 8.37502C8.79712 8.25836 8.94435 8.10002 9.16657 7.90002C9.48879 7.58891 9.71657 7.31249 9.8499 7.07074C9.98324 6.82901 10.0499 6.56099 10.0499 6.26669ZM3.5999 13.6C3.2699 13.6 2.9874 13.4825 2.7524 13.2475C2.5174 13.0125 2.3999 12.73 2.3999 12.4V3.60002C2.3999 3.27002 2.5174 2.98752 2.7524 2.75252C2.9874 2.51752 3.2699 2.40002 3.5999 2.40002H12.3999C12.7299 2.40002 13.0124 2.51752 13.2474 2.75252C13.4824 2.98752 13.5999 3.27002 13.5999 3.60002V12.4C13.5999 12.73 13.4824 13.0125 13.2474 13.2475C13.0124 13.4825 12.7299 13.6 12.3999 13.6H3.5999Z" fill="#73808F"/>
</g>
</svg>
