<svg width="24" height="24" viewBox="0 0 24 24" fill="none" xmlns="http://www.w3.org/2000/svg">
<mask id="mask0_79_268" style="mask-type:alpha" maskUnits="userSpaceOnUse" x="0" y="0" width="24" height="24">
<rect width="24" height="24" fill="#D9D9D9"/>
</mask>
<g mask="url(#mask0_79_268)">
<path d="M12.0002 22C10.6169 22 9.31686 21.7375 8.1002 21.2125C6.88353 20.6875 5.8252 19.975 4.9252 19.075C4.0252 18.175 3.3127 17.1167 2.7877 15.9C2.2627 14.6833 2.0002 13.3833 2.0002 12C2.0002 10.9667 2.14186 9.9875 2.4252 9.0625C2.70853 8.1375 3.11686 7.275 3.6502 6.475L1.3752 4.2C1.1752 4 1.0752 3.7625 1.0752 3.4875C1.0752 3.2125 1.1752 2.975 1.3752 2.775C1.5752 2.575 1.8127 2.475 2.0877 2.475C2.3627 2.475 2.6002 2.575 2.8002 2.775L21.2002 21.175C21.4002 21.375 21.5002 21.6083 21.5002 21.875C21.5002 22.1417 21.4002 22.375 21.2002 22.575C21.0002 22.775 20.7627 22.875 20.4877 22.875C20.2127 22.875 19.9752 22.775 19.7752 22.575L17.5252 20.35C16.7252 20.8833 15.8627 21.2917 14.9377 21.575C14.0127 21.8583 13.0335 22 12.0002 22ZM12.0002 20C12.7502 20 13.4627 19.9 14.1377 19.7C14.8127 19.5 15.4502 19.225 16.0502 18.875L12.1752 15L11.3002 15.875C11.1002 16.075 10.8627 16.175 10.5877 16.175C10.3127 16.175 10.0752 16.075 9.8752 15.875L7.0502 13.05C6.86686 12.8667 6.7752 12.6333 6.7752 12.35C6.7752 12.0667 6.86686 11.8333 7.0502 11.65C7.23353 11.4667 7.46686 11.375 7.7502 11.375C8.03353 11.375 8.26686 11.4667 8.4502 11.65L10.6002 13.8L10.7752 13.6L5.1252 7.95C4.7752 8.55 4.5002 9.1875 4.3002 9.8625C4.1002 10.5375 4.0002 11.25 4.0002 12C4.0002 14.2167 4.77936 16.1042 6.3377 17.6625C7.89603 19.2208 9.78353 20 12.0002 20ZM20.3752 17.5L18.9002 16.025C19.2502 15.4417 19.521 14.8125 19.7127 14.1375C19.9044 13.4625 20.0002 12.75 20.0002 12C20.0002 9.78333 19.221 7.89583 17.6627 6.3375C16.1044 4.77917 14.2169 4 12.0002 4C11.2502 4 10.5377 4.09583 9.8627 4.2875C9.1877 4.47917 8.55853 4.75 7.9752 5.1L6.5002 3.625C7.3002 3.10833 8.1627 2.70833 9.0877 2.425C10.0127 2.14167 10.9835 2 12.0002 2C13.3835 2 14.6835 2.2625 15.9002 2.7875C17.1169 3.3125 18.1752 4.025 19.0752 4.925C19.9752 5.825 20.6877 6.88333 21.2127 8.1C21.7377 9.31667 22.0002 10.6167 22.0002 12C22.0002 13.0167 21.8585 13.9875 21.5752 14.9125C21.2919 15.8375 20.8919 16.7 20.3752 17.5ZM15.0502 12.15L13.6502 10.75L15.5502 8.85C15.7335 8.66667 15.9669 8.575 16.2502 8.575C16.5335 8.575 16.7669 8.66667 16.9502 8.85C17.1335 9.03333 17.2252 9.26667 17.2252 9.55C17.2252 9.83333 17.1335 10.0667 16.9502 10.25L15.0502 12.15Z" fill="#181922"/>
</g>
</svg>
